<mxfile host="app.diagrams.net" modified="2023-11-17T05:25:46.213Z" agent="Mozilla/5.0 (Windows NT 10.0; Win64; x64) AppleWebKit/537.36 (KHTML, like Gecko) Chrome/119.0.0.0 Safari/537.36" version="22.1.2" etag="HbNX0KpxqLIXX8HkmiHL" type="github">
  <diagram name="PÃ¡gina-1" id="AGlon7vXLh7kV010BHI9">
    <mxGraphModel>
      <root>
        <mxCell id="0" />
        <mxCell id="1" parent="0" />
      </root>
    </mxGraphModel>
  </diagram>
</mxfile>
